<?xml version="1.0" encoding="UTF-8"?>
<svg xmlns="http://www.w3.org/2000/svg" xmlns:xlink="http://www.w3.org/1999/xlink" viewBox="0 0 60 60" width="60px" height="60px">
<g id="surface42895300">
<path style=" stroke:none;fill-rule:nonzero;fill:rgb(100%,100%,89.411765%);fill-opacity:1;" d="M 30 8 C 23.277344 8 14.109375 8.109375 12.257812 8.269531 C 10.164062 9.511719 6.039062 13.800781 6 15.042969 L 6 17.101562 C 6 19.710938 8.4375 22 10.648438 22 C 13.304688 22 15.523438 19.796875 15.523438 17.183594 C 15.523438 19.796875 17.660156 22 20.316406 22 C 22.972656 22 25.046875 19.796875 25.046875 17.183594 C 25.046875 19.796875 27.320312 22 29.976562 22 L 30.027344 22 C 32.683594 22 34.957031 19.796875 34.957031 17.183594 C 34.957031 19.796875 37.027344 22 39.683594 22 C 42.339844 22 44.480469 19.796875 44.480469 17.183594 C 44.480469 19.796875 46.695312 22 49.351562 22 C 51.5625 22 54 19.710938 54 17.101562 L 54 15.042969 C 53.960938 13.800781 49.835938 9.511719 47.742188 8.269531 C 41.234375 8.039062 36.722656 8 30 8 Z M 24.96875 23.273438 C 24.714844 23.714844 24.398438 24.121094 24.03125 24.476562 C 23.027344 25.457031 21.652344 26.066406 20.136719 26.066406 C 18.679688 26.070312 17.277344 25.496094 16.234375 24.476562 C 15.871094 24.121094 15.597656 23.742188 15.34375 23.296875 C 15.089844 23.742188 14.738281 24.117188 14.371094 24.476562 C 13.328125 25.496094 11.925781 26.070312 10.46875 26.066406 C 10.285156 26.066406 10.097656 26.015625 9.945312 25.960938 C 9.730469 28.183594 9.683594 29.082031 9.652344 30.632812 L 9.652344 30.640625 C 9.648438 31.429688 9.644531 32.078125 9.640625 32.976562 C 9.683594 37.644531 9.179688 48.105469 11.699219 50.675781 C 15.605469 51.582031 22.789062 51.996094 30 52 C 37.210938 51.996094 44.394531 51.582031 48.300781 50.671875 C 50.820312 48.101562 50.316406 37.636719 50.359375 32.972656 C 50.355469 32.074219 50.351562 31.429688 50.347656 30.640625 L 50.347656 30.632812 C 50.316406 29.082031 50.183594 28.183594 49.96875 25.960938 C 49.816406 26.011719 49.625 26.0625 49.441406 26.0625 C 47.984375 26.066406 46.582031 25.496094 45.539062 24.476562 C 45.175781 24.121094 44.824219 23.742188 44.570312 23.296875 L 44.566406 23.296875 C 44.3125 23.742188 44.039062 24.121094 43.675781 24.476562 C 42.632812 25.496094 41.230469 26.066406 39.773438 26.066406 C 38.257812 26.066406 36.882812 25.457031 35.878906 24.476562 C 35.511719 24.121094 35.203125 23.714844 34.945312 23.273438 C 34.691406 23.714844 34.382812 24.121094 34.019531 24.476562 C 32.976562 25.496094 31.574219 26.066406 30.117188 26.066406 C 30.066406 26.066406 30.007812 26.066406 29.957031 26.0625 C 29.90625 26.066406 29.851562 26.066406 29.796875 26.066406 C 28.339844 26.070312 26.9375 25.496094 25.894531 24.476562 C 25.53125 24.121094 25.21875 23.714844 24.96875 23.273438 Z M 21.933594 29.289062 L 21.933594 29.292969 C 23.359375 29.296875 24.625 29.292969 26.191406 31.003906 C 27.425781 30.875 28.710938 30.808594 30 30.808594 L 30.003906 30.808594 C 31.292969 30.808594 32.578125 30.875 33.8125 31.003906 C 35.378906 29.292969 36.640625 29.296875 38.066406 29.292969 L 38.070312 29.292969 L 38.070312 29.289062 C 38.742188 29.289062 41.433594 29.289062 43.308594 34.554688 L 45.320312 41.78125 C 46.8125 47.15625 44.84375 47.285156 42.386719 47.289062 C 38.742188 47.152344 36.726562 44.507812 36.726562 41.863281 C 34.707031 42.191406 32.359375 42.359375 30.003906 42.359375 C 27.648438 42.359375 25.292969 42.191406 23.277344 41.863281 C 23.277344 44.507812 21.261719 47.152344 17.617188 47.289062 C 15.160156 47.285156 13.1875 47.15625 14.679688 41.78125 L 16.695312 34.554688 C 18.570312 29.289062 21.257812 29.289062 21.933594 29.289062 Z M 30 33.265625 C 29.996094 33.269531 26.75 36.253906 26.167969 37.3125 L 28.292969 37.226562 L 28.292969 39.078125 C 28.292969 39.164062 29.148438 39.132812 30 39.09375 C 30.855469 39.132812 31.707031 39.164062 31.707031 39.078125 L 31.707031 37.226562 L 33.832031 37.3125 C 33.25 36.25 30 33.265625 30 33.265625 Z M 30 33.265625 "/>
</g>
</svg>
