<?xml version="1.0" encoding="UTF-8"?>
<svg xmlns="http://www.w3.org/2000/svg" xmlns:xlink="http://www.w3.org/1999/xlink" viewBox="0 0 64 64" width="64px" height="64px">
<g id="surface75897813">
<path style=" stroke:none;fill-rule:nonzero;fill:rgb(0%,0%,0%);fill-opacity:1;" d="M 32 4.09375 C 30.949219 4.09375 29.898438 4.371094 28.960938 4.921875 L 10.960938 15.515625 C 9.132812 16.585938 8 18.570312 8 20.6875 L 8 44.023438 C 8 46.21875 9.195312 48.238281 11.125 49.289062 L 17.023438 52.507812 C 17.929688 53.003906 18.914062 53.242188 19.898438 53.242188 C 20.953125 53.242188 21.996094 52.957031 22.953125 52.398438 C 24.792969 51.304688 25.890625 49.378906 25.890625 47.234375 L 25.890625 21.859375 L 21.890625 21.859375 L 21.890625 47.234375 C 21.890625 48.261719 21.210938 48.78125 20.914062 48.953125 C 20.621094 49.125 19.835938 49.484375 18.9375 48.992188 L 13.046875 45.78125 C 12.402344 45.429688 12 44.753906 12 44.023438 L 12 20.6875 C 12 19.984375 12.375 19.320312 12.984375 18.960938 L 30.984375 8.367188 C 31.609375 8 32.390625 8.003906 33.015625 8.367188 L 51.015625 18.960938 C 51.621094 19.320312 52 19.984375 52 20.6875 L 52 44.039062 C 52 44.757812 51.601562 45.4375 50.960938 45.796875 L 32.960938 55.601562 C 32.359375 55.921875 31.640625 55.921875 31.039062 55.601562 L 27.523438 53.679688 C 26.84375 54.519531 26 55.242188 25 55.84375 C 24.679688 56.042969 24.359375 56.199219 24.039062 56.320312 L 29.117188 59.117188 C 30.039062 59.597656 31 59.84375 32 59.84375 C 33 59.84375 33.960938 59.597656 34.882812 59.117188 L 52.882812 49.28125 C 54.804688 48.242188 56 46.238281 56 44.039062 L 56 20.6875 C 56 18.570312 54.871094 16.585938 53.046875 15.515625 L 35.046875 4.921875 C 34.109375 4.371094 33.050781 4.09375 32 4.09375 Z M 37.804688 21.273438 C 31.484375 21.273438 28.28125 23.476562 28.28125 27.820312 C 28.28125 32.742188 33.949219 33.472656 36.671875 33.820312 C 37.0625 33.871094 37.410156 33.917969 37.6875 33.96875 L 38.882812 34.179688 C 43.042969 34.875 44 35.347656 44 36.6875 C 44 37.335938 43.996094 39.296875 37.804688 39.296875 C 32.550781 39.296875 31.476562 37.738281 31.476562 35.398438 L 27.476562 35.398438 C 27.476562 39.007812 29.269531 43.296875 37.804688 43.296875 C 46.230469 43.296875 48 39.703125 48 36.6875 C 48 31.65625 43.109375 30.832031 39.546875 30.226562 L 38.398438 30.03125 C 38.066406 29.972656 37.648438 29.914062 37.179688 29.859375 C 34.636719 29.53125 32.28125 29.058594 32.28125 27.828125 C 32.28125 26.9375 32.277344 25.277344 37.804688 25.273438 C 41.480469 25.273438 43.351562 26.484375 43.351562 28.867188 L 47.351562 28.867188 C 47.351562 25.199219 44.835938 21.273438 37.804688 21.273438 Z M 37.804688 21.273438 "/>
</g>
</svg>
