<svg xmlns="http://www.w3.org/2000/svg" version="1.0" viewBox="85.76 24.15 203.25 11.91"><defs><clipPath id="a"><path d="M 217 26 L 289.007812 26 L 289.007812 30 L 217 30 Z M 217 26"/></clipPath><clipPath id="b"><path d="M 85.757812 26 L 158 26 L 158 30 L 85.757812 30 Z M 85.757812 26"/></clipPath><clipPath id="c"><path d="M 159 24.148438 L 216 24.148438 L 216 36 L 159 36 Z M 159 24.148438"/></clipPath><clipPath id="d"><path d="M 154.074219 26.554688 L 220.695312 26.554688 L 220.695312 36.054688 L 154.074219 36.054688 Z M 154.074219 26.554688"/></clipPath></defs><g clip-path="url(#a)"><path fill="#FFF" d="M 217.59375 26.84375 C 217.59375 26.84375 217.851562 26.957031 218.335938 27.167969 C 218.824219 27.367188 219.550781 27.617188 220.496094 27.847656 C 222.394531 28.324219 225.171875 28.65625 228.511719 28.679688 C 230.1875 28.695312 232 28.707031 233.917969 28.722656 C 235.84375 28.726562 237.875 28.730469 239.976562 28.734375 C 244.179688 28.742188 248.664062 28.75 253.148438 28.757812 C 262.113281 28.777344 271.078125 28.792969 277.800781 28.808594 C 278.640625 28.808594 279.445312 28.808594 280.214844 28.804688 C 280.980469 28.8125 281.707031 28.886719 282.390625 28.921875 C 283.757812 29.003906 284.945312 29.078125 285.929688 29.140625 C 287.886719 29.277344 289.007812 29.355469 289.007812 29.355469 C 289.007812 29.355469 287.886719 29.429688 285.925781 29.558594 C 284.945312 29.613281 283.753906 29.679688 282.386719 29.761719 C 281.707031 29.789062 280.976562 29.863281 280.210938 29.863281 C 279.445312 29.859375 278.640625 29.855469 277.800781 29.851562 C 271.074219 29.835938 262.109375 29.820312 253.144531 29.800781 C 248.660156 29.792969 244.179688 29.785156 239.972656 29.777344 C 237.871094 29.773438 235.84375 29.769531 233.917969 29.765625 C 231.992188 29.75 230.15625 29.816406 228.46875 29.625 C 225.089844 29.328125 222.300781 28.769531 220.421875 28.132812 C 219.484375 27.808594 218.769531 27.480469 218.300781 27.238281 C 217.839844 26.980469 217.59375 26.84375 217.59375 26.84375"/></g><g clip-path="url(#b)"><path fill="#FFF" d="M 157.171875 26.84375 C 157.171875 26.84375 156.914062 26.957031 156.429688 27.167969 C 155.941406 27.367188 155.214844 27.617188 154.265625 27.847656 C 152.371094 28.324219 149.597656 28.65625 146.253906 28.679688 C 144.582031 28.695312 142.765625 28.707031 140.847656 28.722656 C 138.921875 28.726562 136.890625 28.730469 134.789062 28.734375 C 130.585938 28.742188 126.101562 28.75 121.621094 28.757812 C 112.65625 28.777344 103.691406 28.792969 96.964844 28.808594 C 96.121094 28.808594 95.316406 28.808594 94.550781 28.804688 C 93.789062 28.8125 93.058594 28.886719 92.375 28.921875 C 91.011719 29.003906 89.820312 29.078125 88.839844 29.140625 C 86.875 29.277344 85.757812 29.355469 85.757812 29.355469 C 85.757812 29.355469 86.875 29.429688 88.839844 29.558594 C 89.820312 29.613281 91.011719 29.679688 92.378906 29.761719 C 93.0625 29.789062 93.789062 29.863281 94.554688 29.863281 C 95.320312 29.859375 96.125 29.855469 96.964844 29.851562 C 103.691406 29.835938 112.65625 29.820312 121.625 29.800781 C 126.105469 29.792969 130.589844 29.785156 134.792969 29.777344 C 136.890625 29.773438 138.925781 29.769531 140.851562 29.765625 C 142.773438 29.75 144.613281 29.816406 146.296875 29.625 C 149.675781 29.328125 152.46875 28.769531 154.34375 28.132812 C 155.28125 27.808594 155.992188 27.480469 156.464844 27.238281 C 156.925781 26.980469 157.171875 26.84375 157.171875 26.84375"/></g><g clip-path="url(#c)"><path fill="#FFF" d="M 187.382812 33.695312 C 187.519531 33.84375 187.65625 34 187.789062 34.164062 L 186.972656 34.164062 C 187.105469 34 187.242188 33.84375 187.382812 33.695312 Z M 187.382812 33.695312 C 188.195312 32.847656 189.128906 32.277344 190.0625 31.730469 C 191.164062 31.101562 192.304688 30.566406 193.457031 30.078125 C 195.765625 29.101562 198.136719 28.3125 200.546875 27.675781 C 202.960938 27.042969 205.417969 26.554688 207.929688 26.390625 C 209.1875 26.320312 210.457031 26.316406 211.746094 26.585938 C 212.386719 26.730469 213.035156 26.925781 213.640625 27.316406 C 214.234375 27.707031 214.769531 28.339844 214.945312 29.167969 L 215.007812 29.636719 C 215.035156 29.921875 214.976562 30.082031 214.953125 30.308594 C 214.925781 30.515625 214.785156 30.71875 214.6875 30.914062 C 214.570312 31.09375 214.394531 31.222656 214.242188 31.367188 C 213.566406 31.828125 212.875 31.890625 212.21875 31.964844 C 210.910156 32.035156 209.65625 31.863281 208.421875 31.65625 C 205.957031 31.207031 203.550781 30.554688 201.179688 29.820312 C 196.484375 28.183594 191.886719 26.316406 187.382812 24.234375 C 182.878906 26.316406 178.28125 28.183594 173.585938 29.820312 C 171.214844 30.554688 168.8125 31.207031 166.34375 31.65625 C 165.105469 31.863281 163.855469 32.035156 162.546875 31.964844 C 161.890625 31.890625 161.199219 31.828125 160.523438 31.367188 C 160.371094 31.222656 160.195312 31.09375 160.078125 30.914062 C 159.980469 30.71875 159.839844 30.515625 159.8125 30.308594 C 159.789062 30.082031 159.730469 29.921875 159.757812 29.636719 L 159.820312 29.167969 C 159.996094 28.339844 160.53125 27.707031 161.125 27.316406 C 161.730469 26.925781 162.378906 26.730469 163.019531 26.585938 C 164.304688 26.316406 165.582031 26.320312 166.839844 26.390625 C 169.351562 26.554688 171.804688 27.042969 174.21875 27.675781 C 176.628906 28.3125 179 29.101562 181.308594 30.078125 C 182.460938 30.566406 183.601562 31.101562 184.699219 31.730469 C 185.636719 32.277344 186.570312 32.847656 187.382812 33.695312 Z M 187.382812 24.234375 C 192.042969 25.910156 196.726562 27.515625 201.472656 28.816406 C 203.824219 29.53125 206.195312 30.207031 208.589844 30.628906 C 209.785156 30.832031 210.996094 30.988281 212.152344 30.925781 C 212.714844 30.871094 213.292969 30.773438 213.652344 30.515625 C 213.8125 30.382812 213.925781 30.242188 213.96875 30.050781 C 213.96875 29.964844 214.007812 29.8125 214 29.78125 L 213.9375 29.308594 C 213.820312 28.890625 213.53125 28.488281 213.09375 28.195312 C 212.652344 27.90625 212.101562 27.730469 211.539062 27.605469 C 210.40625 27.367188 209.191406 27.359375 207.988281 27.433594 C 205.574219 27.589844 203.164062 28.066406 200.800781 28.683594 C 198.433594 29.3125 196.101562 30.085938 193.84375 31.042969 C 192.71875 31.519531 191.613281 32.039062 190.554688 32.640625 C 189.515625 33.238281 188.46875 33.933594 187.789062 34.78125 L 187.382812 35.296875 L 186.972656 34.78125 C 186.300781 33.933594 185.253906 33.238281 184.210938 32.640625 C 183.15625 32.039062 182.046875 31.519531 180.917969 31.042969 C 178.667969 30.085938 176.332031 29.3125 173.96875 28.683594 C 171.601562 28.066406 169.191406 27.589844 166.777344 27.433594 C 165.574219 27.359375 164.359375 27.367188 163.226562 27.605469 C 162.664062 27.730469 162.113281 27.90625 161.671875 28.195312 C 161.230469 28.488281 160.941406 28.890625 160.824219 29.308594 L 160.765625 29.78125 C 160.757812 29.8125 160.796875 29.964844 160.796875 30.050781 C 160.84375 30.242188 160.949219 30.382812 161.113281 30.515625 C 161.472656 30.773438 162.054688 30.871094 162.613281 30.925781 C 163.769531 30.988281 164.980469 30.832031 166.175781 30.628906 C 168.570312 30.207031 170.941406 29.53125 173.292969 28.816406 C 178.042969 27.515625 182.726562 25.910156 187.382812 24.234375"/></g><g clip-path="url(#d)"><path fill="#FFF" d="M 187.382812 28.242188 L 187.441406 28.242188 C 187.421875 28.253906 187.402344 28.261719 187.382812 28.269531 C 187.363281 28.261719 187.339844 28.253906 187.320312 28.242188 Z M 187.382812 26.636719 L 187.386719 26.636719 L 187.929688 26.894531 C 191.015625 28.382812 194.289062 29.621094 197.578125 30.746094 C 199.222656 31.308594 200.882812 31.839844 202.550781 32.332031 C 204.226562 32.8125 205.882812 33.351562 207.570312 33.804688 L 210.089844 34.472656 L 211.359375 34.78125 L 211.96875 34.925781 L 212.613281 35.050781 C 214.167969 35.304688 215.863281 35.15625 217.289062 34.445312 C 218.714844 33.773438 219.917969 32.398438 220.050781 30.757812 C 220.121094 29.945312 219.867188 29.125 219.378906 28.441406 C 218.878906 27.761719 218.171875 27.226562 217.386719 26.847656 L 217.4375 26.710938 C 218.261719 27.039062 219.035156 27.535156 219.621094 28.230469 C 220.199219 28.929688 220.539062 29.84375 220.511719 30.769531 C 220.460938 32.636719 219.183594 34.257812 217.632812 35.097656 C 216.070312 35.992188 214.226562 36.195312 212.476562 35.976562 C 211.605469 35.855469 210.746094 35.648438 209.886719 35.480469 L 207.320312 34.894531 C 203.902344 34.082031 200.519531 33.121094 197.179688 32.027344 C 193.859375 30.9375 190.566406 29.746094 187.382812 28.269531 C 184.199219 29.746094 180.90625 30.9375 177.589844 32.027344 C 174.246094 33.121094 170.863281 34.082031 167.449219 34.894531 L 164.878906 35.480469 C 164.019531 35.648438 163.160156 35.855469 162.292969 35.976562 C 160.539062 36.195312 158.695312 35.992188 157.128906 35.097656 C 155.582031 34.257812 154.304688 32.636719 154.257812 30.769531 C 154.230469 29.84375 154.566406 28.929688 155.140625 28.230469 C 155.730469 27.535156 156.503906 27.039062 157.328125 26.710938 L 157.382812 26.847656 C 156.59375 27.226562 155.882812 27.761719 155.386719 28.441406 C 154.898438 29.125 154.648438 29.945312 154.714844 30.757812 C 154.847656 32.398438 156.050781 33.773438 157.476562 34.445312 C 158.902344 35.15625 160.601562 35.304688 162.152344 35.050781 L 162.796875 34.925781 L 163.402344 34.78125 L 164.675781 34.472656 L 167.199219 33.804688 C 168.878906 33.351562 170.539062 32.8125 172.210938 32.332031 C 173.882812 31.839844 175.539062 31.308594 177.1875 30.746094 C 180.476562 29.621094 183.753906 28.382812 186.835938 26.894531 L 187.378906 26.636719 L 187.382812 26.636719"/></g><path fill="#FFF" d="M 281.042969 27.710938 L 284.6875 29.304688 L 281.035156 30.875 L 277.390625 29.28125 L 281.042969 27.710938"/><path fill="#FFF" d="M 93.722656 27.710938 L 90.078125 29.304688 L 93.734375 30.875 L 97.375 29.28125 L 93.722656 27.710938"/><path fill="#FFF" d="M 279.289062 29.386719 C 279.289062 30.210938 278.636719 30.875 277.835938 30.875 C 277.035156 30.875 276.386719 30.210938 276.386719 29.386719 C 276.386719 28.5625 277.035156 27.898438 277.835938 27.898438 C 278.636719 27.898438 279.289062 28.5625 279.289062 29.386719"/><path fill="#FFF" d="M 95.480469 29.386719 C 95.480469 30.210938 96.128906 30.875 96.929688 30.875 C 97.730469 30.875 98.382812 30.210938 98.382812 29.386719 C 98.382812 28.5625 97.730469 27.898438 96.929688 27.898438 C 96.128906 27.898438 95.480469 28.5625 95.480469 29.386719"/></svg>